<?xml version="1.0" encoding="UTF-8" standalone="no"?>
<!-- Created with Inkscape (http://www.inkscape.org/) -->

<svg
   width="16"
   height="16"
   viewBox="0 0 16 16"
   version="1.1"
   id="svg2451"
   xml:space="preserve"
   sodipodi:docname="dlg-dark.svg"
   inkscape:version="1.2.1 (9c6d41e410, 2022-07-14)"
   xmlns:inkscape="http://www.inkscape.org/namespaces/inkscape"
   xmlns:sodipodi="http://sodipodi.sourceforge.net/DTD/sodipodi-0.dtd"
   xmlns="http://www.w3.org/2000/svg"
   xmlns:svg="http://www.w3.org/2000/svg"><sodipodi:namedview
     id="namedview2453"
     pagecolor="#ffffff"
     bordercolor="#000000"
     borderopacity="0.25"
     inkscape:showpageshadow="2"
     inkscape:pageopacity="0.0"
     inkscape:pagecheckerboard="true"
     inkscape:deskcolor="#d1d1d1"
     inkscape:document-units="px"
     showgrid="false"
     inkscape:zoom="32"
     inkscape:cx="4.71875"
     inkscape:cy="11.3125"
     inkscape:window-width="1920"
     inkscape:window-height="1009"
     inkscape:window-x="-8"
     inkscape:window-y="-8"
     inkscape:window-maximized="1"
     inkscape:current-layer="layer1" /><defs
     id="defs2448"><inkscape:path-effect
       effect="bspline"
       id="path-effect2912"
       is_visible="true"
       lpeversion="1"
       weight="33.333333"
       steps="2"
       helper_size="0"
       apply_no_weight="true"
       apply_with_weight="true"
       only_selected="false" /></defs><g
     inkscape:label="Слой 1"
     inkscape:groupmode="layer"
     id="layer1"><path
       style="fill:#29261a;stroke:#929292;stroke-width:1.44598;stroke-dasharray:none;stroke-opacity:1;fill-opacity:1"
       d="m 7.1526468,1.5776805 c 1.5798874,0.011279 4.7382052,0.033827 6.3317542,1.0546803 1.593549,1.0208535 1.623772,3.0388393 1.638876,4.7975699 0.0151,1.7587306 0.0151,3.2581263 -1.268682,4.0072983 -1.283784,0.749173 -3.852697,0.749173 -5.1296243,0.749173 -1.2769273,0 -1.2618173,0 -2.1274904,0.650926 -0.8656731,0.650926 -2.6110238,1.953035 -3.0273545,2.014285 -0.4163306,0.06125 0.4967496,-1.11862 0.2594444,-1.708555 C 3.5922651,12.553124 2.2031797,12.553124 1.5078978,10.739419 0.8126159,8.9257147 0.8126159,5.2973678 1.6067014,3.4656907 2.4007869,1.6340135 3.987469,1.6001927 4.7801124,1.5832971 c 0.7926435,-0.016895 0.792647,-0.016896 2.3725344,-0.00562 z"
       id="path2910"
       inkscape:path-effect="#path-effect2912"
       inkscape:original-d="m 5.5727594,1.5664015 c 3.1597671,0.02363 6.3180846,0.046177 9.4749506,0.067643 0.03166,2.0191485 0.0619,4.0371341 0.09067,6.0540774 0.0014,1.5005394 0.0014,2.9999351 0,4.4982801 -2.567569,0.0011 -5.136482,0.0011 -7.7068986,0 0.016562,0.0011 0.031672,0.0011 0.045333,0 -1.7439697,1.303243 -3.4893199,2.605352 -5.236156,3.906403 0.9145679,-1.178835 1.8276487,-2.358704 2.7392968,-3.539681 -1.3876901,0.0011 -2.7767755,0.0011 -4.1673393,0 0.00145,-3.6274093 0.00145,-7.2557562 0,-10.8852579 1.5881947,-0.03274 3.1748768,-0.06656 4.76014,-0.1014645 z" /><g
       id="g13470"
       transform="matrix(0.09804614,0,0,0.09757452,6.551419,6.0277442)"><path
         style="fill:#d3d3d3"
         d="m -22.083926,42.093826 c -10.173693,-0.48365 -12.032592,-0.834905 -13.249999,-2.503706 -0.778841,-1.067621 -1.416075,-2.755121 -1.416075,-3.75 0,-0.994878 0.968758,-2.777628 2.152795,-3.961665 2.09962,-2.09962 2.612158,-2.136741 20.75,-1.502826 C -3.618742,30.733112 8.9125,31.02687 14,31.028424 c 7.914375,0.0024 9.538784,0.29161 11.25,2.002826 1.1,1.1 2,2.9 2,4 0,1.1 -0.9,2.9 -2,4 -1.857312,1.857312 -3.195013,1.986628 -18.75,1.812576 -9.2125,-0.103083 -22.075266,-0.440583 -28.583926,-0.75 z M 14.75,17.983864 C 9.25,17.589129 -3.4625,17.213309 -13.5,17.148707 -30.329218,17.040394 -31.905702,16.875548 -33.75,15.03125 c -1.1,-1.1 -2,-2.9 -2,-4 0,-1.1 0.969311,-2.969311 2.154024,-4.154024 2.148911,-2.148911 2.223097,-2.151925 31.25,-1.269417 16.002787,0.486535 37.793455,0.893346 48.423708,0.904025 17.964798,0.01805 19.428028,0.156299 20.749998,1.960546 0.78225,1.067621 1.42227,2.669113 1.42227,3.55887 0,0.889757 -0.60929,2.450995 -1.35398,3.469417 -0.8609,1.177347 -3.31906,2.130797 -6.749999,2.618127 C 57.178209,18.540341 48,18.843916 39.75,18.793403 c -8.25,-0.05051 -19.5,-0.414805 -25,-0.809539 z"
         id="path13476" /><path
         style="fill:#a2d8ed"
         d="m 0.150275,-6.861804 c -14.412853,-0.446324 -20.036454,-0.97015 -21.25,-1.979391 -0.907651,-0.754844 -1.650275,-2.442344 -1.650275,-3.75 0,-1.307655 0.952746,-3.330301 2.117212,-4.494767 2.063545,-2.063545 2.766965,-2.109289 27.75,-1.80461 14.098034,0.171932 27.915726,-0.04774 30.705983,-0.488164 4.191396,-0.661582 5.374036,-0.499926 6.804003,0.930041 1.078226,1.078226 1.616188,2.890558 1.426805,4.806746 -0.222156,2.2478 -1.18019,3.58566 -3.558411,4.969193 -2.47064,1.437299 -5.601463,1.956433 -13,2.155578 -5.360075,0.144276 -18.565468,-0.0108 -29.345317,-0.344626 z"
         id="path13474" /><path
         style="fill:#7496d1"
         d="m -32.75,-9.96875 c -1.1,-1.1 -2,-2.830256 -2,-3.845012 0,-1.014757 0.822933,-2.589757 1.828741,-3.5 1.005807,-0.910244 2.773664,-1.654988 3.928571,-1.654988 1.154907,0 2.806974,0.707143 3.671259,1.571429 0.864286,0.864285 1.571429,2.594541 1.571429,3.845012 0,1.250471 -0.822933,3.018328 -1.828741,3.928571 -1.005807,0.910244 -2.580807,1.654988 -3.5,1.654988 -0.919192,0 -2.571259,-0.9 -3.671259,-2 z"
         id="path13472" /></g></g></svg>
